/* XPM */
static char *df70529fd0b24acb9ec60b587f375d789w8TiTdUbsGthasg[] = {
/* columns rows colors chars-per-pixel */
"16 16 4 1 ",
"  c None",
". c black",
"X c red",
"o c white",
/* pixels */
"     XXXXXX     ",
"   XXXXXXXXXX   ",
"  XXXXXXXXXXXX  ",
" XXXXXXXXXXXXXX ",
" XXXooXXXXooXXX ",
" XXooooXXooooXX ",
"XXXo..oXXo..oXXX",
"XXXo..oXXo..oXXX",
"XXXXooXXXXooXXXX",
"XXXXXXXXXXXXXXXX",
"XXXXXXXXXXXXXXXX",
"XXXXXXXXXXXXXXXX",
"XXXXXXXXXXXXXXXX",
"XXXXXXXXXXXXXXXX",
"XX XXXX  XXXX XX",
"X   XX    XX   X"
};
