/* XPM */
static char *_3c3d02b7ff443e89620c56815df54b17Aucjfnxg4fiLCq3[] = {
/* columns rows colors chars-per-pixel */
"16 16 4 1 ",
"  c None",
". c red",
"X c #5EFF00",
"o c white",
/* pixels */
"                ",
"                ",
"     XXX XXX    ",
"    ..XXXXX..   ",
"   .o...X...o.  ",
"   ...........  ",
"   ..o.o...o..  ",
"   ......o....  ",
"   ..o........  ",
"    ......o..   ",
"    ..o......   ",
"     ...o...    ",
"      .....     ",
"        .       ",
"                ",
"                "
};
